<?xml version="1.0" encoding="utf-8"?>
<!-- Generator: Adobe Illustrator 26.1.0, SVG Export Plug-In . SVG Version: 6.00 Build 0)  -->
<svg version="1.1" id="Layer_1" xmlns="http://www.w3.org/2000/svg" xmlns:xlink="http://www.w3.org/1999/xlink" x="0px" y="0px"
	 viewBox="0 0 65 31" style="enable-background:new 0 0 65 31;" xml:space="preserve">
<style type="text/css">
	.st0{fill:#FFFFFF;}
</style>
<g>
	<rect width="65" height="31"/>
	<g>
		<path class="st0" d="M6.7,22.2c0.8-0.1,1.6-0.5,1.6-2.1v-9.5c0-1.6-0.8-2-1.6-2.1V8.2h7c4.7,0,7.8,3.2,7.8,6.9
			c0,4.2-3.6,7.2-7.7,7.2H6.7V22.2z M12,8.7v13.3h1.3c2.4,0,4-1.7,4-6.6c0-4.5-1.7-6.8-4.1-6.8C13.2,8.7,12,8.7,12,8.7z"/>
		<path class="st0" d="M27,22.7c-2.6,0-4.7-2-4.7-4.8c0-2.9,2.3-5.2,4.9-5.2c2.3,0,4,1.6,4.2,4.2h-5.8c0.2,2.4,1.3,3.6,2.9,3.6
			c1,0,2-0.5,2.6-1.6l0.3,0.1C30.8,21.4,29.2,22.7,27,22.7z M25.7,16.6h2.8c0-2.5-0.4-3.5-1.1-3.5C26.4,13.1,25.7,14.5,25.7,16.6z"
			/>
		<path class="st0" d="M37.4,21.4c-0.9,0.9-2,1.4-3,1.4c-1.2,0-2.4-0.8-2.4-2.2c0-1.5,1-2.7,5.2-3.8v-1.7c0-1.4-0.3-1.8-0.9-1.8
			c-1,0-0.7,1-1,2c-0.3,0.9-1,1.2-1.5,1.2c-0.7,0-1.3-0.5-1.3-1.3c0-1.2,1.3-2.2,4-2.2c2.8,0,4.2,1.3,4.2,3.2v4.6
			c0,0.5,0.2,0.8,0.6,0.8c0.3,0,0.5-0.2,0.8-0.5l0.2,0.2c-0.6,1-1.6,1.6-2.9,1.6C38.3,22.7,37.6,22.3,37.4,21.4z M37.3,21
			c0-0.3-0.1-0.4-0.1-0.7v-3.1C35.4,17.9,35,19,35,19.8c0,1,0.5,1.6,1.2,1.6C36.7,21.3,36.9,21.2,37.3,21z"/>
		<path class="st0" d="M48.6,21.1c-0.8,1-1.7,1.6-2.8,1.6c-1.9,0-3.5-1.6-3.5-4.2c0-3.3,2.5-5.7,5.2-5.7c0.3,0,0.7,0.1,1,0.2v-3
			c0-1.2-0.6-1.5-1.2-1.5V8.2l4.4-1.1l0.2,0.1v13.2c0,1.2,0.5,1.6,1.2,1.6v0.2l-4.3,0.5l-0.2-0.1V21.1L48.6,21.1z M48.5,20.7v-6.6
			c-0.2-0.6-0.5-1-1-1c-1,0-1.8,1.7-1.8,4.4c0,2.5,0.9,3.6,2,3.6C48,21,48.3,20.9,48.5,20.7z"/>
		<path class="st0" d="M54.2,20.7c0-1,0.9-1.8,1.8-1.8c1,0,1.9,0.8,1.9,1.8c0,1-0.9,1.8-1.9,1.8C55,22.6,54.2,21.8,54.2,20.7z"/>
	</g>
</g>
</svg>
