<?xml version="1.0" encoding="utf-8"?>
<!-- Generator: Adobe Illustrator 26.1.0, SVG Export Plug-In . SVG Version: 6.00 Build 0)  -->
<svg version="1.1" id="Layer_1" xmlns="http://www.w3.org/2000/svg" xmlns:xlink="http://www.w3.org/1999/xlink" x="0px" y="0px"
	 viewBox="0 0 75 35.8" style="enable-background:new 0 0 75 35.8;" xml:space="preserve">
<style type="text/css">
	.st0{fill:#FFFFFF;}
</style>
<g>
	<rect class="st0" width="75" height="35.8"/>
	<g>
		<path d="M7.7,25.6c0.9-0.1,1.8-0.6,1.8-2.4v-11c0-1.8-0.9-2.3-1.8-2.4V9.5h8.1c5.4,0,9,3.7,9,8c0,4.8-4.1,8.3-8.9,8.3H7.7V25.6z
			 M13.8,10v15.3h1.5c2.8,0,4.6-2,4.6-7.6c0-5.2-2-7.8-4.7-7.8C15.2,10,13.8,10,13.8,10z"/>
		<path d="M31.2,26.2c-3,0-5.4-2.3-5.4-5.5c0-3.4,2.6-6,5.6-6c2.7,0,4.6,1.9,4.8,4.9h-6.7c0.2,2.8,1.5,4.2,3.4,4.2
			c1.2,0,2.3-0.6,3-1.8l0.3,0.1C35.5,24.7,33.7,26.2,31.2,26.2z M29.6,19.1h3.2c0-2.9-0.5-4-1.3-4C30.5,15.1,29.6,16.7,29.6,19.1z"
			/>
		<path d="M43.1,24.7c-1,1-2.3,1.6-3.5,1.6c-1.4,0-2.8-0.9-2.8-2.5c0-1.7,1.2-3.1,6-4.4v-2c0-1.6-0.3-2.1-1-2.1
			c-1.1,0-0.8,1.1-1.2,2.3c-0.3,1-1.1,1.4-1.7,1.4c-0.8,0-1.5-0.6-1.5-1.5c0-1.4,1.5-2.5,4.6-2.5c3.2,0,4.8,1.5,4.8,3.7V24
			c0,0.6,0.2,0.9,0.7,0.9c0.3,0,0.6-0.2,0.9-0.6l0.2,0.2c-0.7,1.2-1.8,1.9-3.3,1.9C44.2,26.2,43.4,25.7,43.1,24.7z M43,24.2
			c0-0.3-0.1-0.5-0.1-0.8v-3.6c-2,0.8-2.5,2.1-2.5,3.1c0,1.2,0.6,1.8,1.4,1.8C42.3,24.6,42.6,24.5,43,24.2z"/>
		<path d="M56.1,24.4c-0.9,1.2-2,1.8-3.2,1.8c-2.2,0-4-1.9-4-4.9c0-3.8,2.9-6.6,6-6.6c0.4,0,0.8,0.1,1.1,0.2v-3.5
			c0-1.4-0.7-1.7-1.4-1.7V9.5l5.1-1.3l0.2,0.1v15.2c0,1.4,0.6,1.8,1.4,1.8v0.2l-5,0.6L56.1,26V24.4L56.1,24.4z M56,23.9v-7.6
			c-0.2-0.7-0.6-1.2-1.2-1.2c-1.1,0-2.1,2-2.1,5.1c0,2.9,1,4.1,2.3,4.1C55.4,24.2,55.7,24.1,56,23.9z"/>
		<path d="M62.5,23.9c0-1.2,1-2.1,2.1-2.1c1.2,0,2.2,0.9,2.2,2.1s-1,2.1-2.2,2.1C63.5,26.1,62.5,25.1,62.5,23.9z"/>
	</g>
</g>
</svg>
